<?xml version="1.0" encoding="utf-8"?>
<!-- Generator: Adobe Illustrator 21.0.0, SVG Export Plug-In . SVG Version: 6.00 Build 0)  -->
<svg version="1.1" id="Capa_1" xmlns="http://www.w3.org/2000/svg" xmlns:xlink="http://www.w3.org/1999/xlink" x="0px" y="0px"
	 viewBox="0 0 665 544.6" style="enable-background:new 0 0 665 544.6;" xml:space="preserve">
<style type="text/css">
	.st0{fill:#5C5B5F;}
	.st1{fill:#2D80C0;}
	.st2{fill:none;stroke:#F8BE00;stroke-width:15;stroke-miterlimit:10;}
</style>
<g>
	<g>
		<g>
			<path class="st0" d="M159.5,245.4c7.8,0,15.3,1.7,22.6,5v10.7h-8.8v-5.2c-3.6-1.1-7.3-1.7-11-1.8c-3.7-0.2-7.2,0.2-10.5,1.2
				c-2,0.6-3.7,1.6-4.9,2.9c-1.3,1.3-2.1,2.7-2.4,4.2c-0.5,2.5,0.2,4.8,2,6.9c1.4,1.6,3.6,2.8,6.6,3.6c2.3,0.6,5.2,1.3,8.9,2
				c3.8,0.7,6.5,1.3,8.3,1.8c9,2.3,14.4,6.3,16.3,11.9c1.2,3.3,1.4,6.9,0.5,10.8c-0.8,3.8-2.5,7-5,9.5c-2.6,2.7-5.7,4.7-9.1,5.8
				c-3.6,1.3-8.2,2-13.8,2c-7.8,0-15.3-1.7-22.5-5.1v-11.4h8.8v5.2c4,1.1,8,1.7,12.1,1.9c10.2,0.5,16.5-2,19-7.6
				c1.4-2.9,1.3-5.5-0.3-7.9c-1.6-2.4-4.2-4.1-7.9-5c-1.6-0.5-4.4-1.2-8.3-2c-3.9-1-6.9-1.7-9-2.2c-2.5-0.6-5-1.6-7.5-3
				c-2.5-1.4-4.4-3-5.8-4.7c-3.2-4.1-4.1-9-2.7-14.6c1.7-6.4,6.1-10.9,13.2-13.4C151.2,245.8,154.9,245.3,159.5,245.4z"/>
			<path class="st1" d="M214.3,246.5l18.4,56.2l18.4-56.2h21.8v8.8h-5.2v51.5h5.2v8.8h-20.5v-8.8h5.2v-47.7L238,315.5h-10.6
				l-19.6-56.1v47.3h5.2v8.8h-20.4v-8.8h5.2v-51.5h-5.2v-8.8H214.3z"/>
			<path class="st1" d="M316.3,246.5l21.3,60.3h5.2v8.8H325v-8.8h2.6l-3.3-9.4h-28.7l-3.3,9.4h2.6v8.8H277v-8.8h5.2l21.3-60.3H316.3
				z M298.9,287.9h22.1l-11-31.2L298.9,287.9z"/>
			<path class="st1" d="M379.1,246.5c7.2,0,12.6,1.9,16.3,5.8c3.8,3.8,5.6,9.2,5.4,16.1c-0.1,2.9-0.9,5.9-2.3,8.8
				c-1.8,3.7-4.4,6.6-7.9,8.6c3.4,0.8,6.2,3.5,8.4,8.1c1.2,2.3,2.6,6.6,4.4,12.9h5.2v8.8h-13.1c-0.4-0.6-0.9-1.9-1.5-3.9
				c-0.5-2.1-1.1-4.2-1.8-6.5c-0.6-2.3-1.5-4.5-2.5-6.8c-1-2.3-2.3-4.1-4.1-5.6c-1.7-1.5-3.8-2.2-6-2.2c-11.5,0.1-17.3,0.1-17.3,0.1
				c0,7.2,0,12.6,0.1,16.2h5.2v8.8h-20.5v-8.8h5.2v-51.5h-5.2v-8.8H379.1z M362.2,281.3l15.7-0.1c4.4,0,7.6-0.9,9.5-2.6
				c2.3-2.1,3.5-5.4,3.5-9.9s-1.2-7.9-3.5-10.1c-2-2-5.2-3-9.5-2.9h-15.7V281.3z"/>
			<path class="st1" d="M468.7,246.5v9.1v5.2h-8.8v-5.2h-14.1v51.2h5.2v8.8h-5.2h-10.2h-5.2v-8.8h5.2v-51.2h-14.1v5.2h-8.8v-5.2
				v-9.1H468.7z"/>
		</g>
	</g>
	<g>
		<g>
			<path class="st0" d="M138.8,458.7h26.5c7.4,0,12.9,1.7,16.6,5.2c3.9,3.6,5.8,9.3,5.8,17.3c0,8-1.9,13.8-5.8,17.6
				c-3.7,3.7-9.2,5.5-16.5,5.5h-16.3V519h5.1v8.8h-5.1h-10.1h-5.2V519h5.2v-51.5h-5.2v-8.8H138.8z M148.9,495.2h15.7
				c4.3,0,7.6-1.1,9.7-3.3c2.3-2.3,3.5-5.8,3.5-10.5c0-4.7-1.2-8.2-3.5-10.4c-1-1-2.4-1.8-4.2-2.3c-1.9-0.6-3.7-0.8-5.5-0.8h-15.7
				V495.2z"/>
			<path class="st1" d="M197,458.7h48.9v9.8v5.2h-8.8v-5.2h-29.9v19h32.1v9.8h-32.1V518h29.9v-5.2h8.8v5.2v9.7H197h-5.2V519h5.2
				v-51.5h-5.2v-8.8H197z"/>
			<path class="st1" d="M283.5,458.7c7.2,0,12.6,1.9,16.3,5.8c3.8,3.8,5.6,9.2,5.4,16.1c-0.1,2.9-0.9,5.9-2.3,8.8
				c-1.8,3.7-4.4,6.6-7.9,8.6c3.4,0.8,6.2,3.5,8.4,8.1c1.2,2.3,2.6,6.6,4.4,12.9h5.2v8.8h-13.1c-0.4-0.6-0.9-1.9-1.5-3.9
				c-0.5-2.1-1.1-4.2-1.8-6.5c-0.6-2.3-1.5-4.5-2.5-6.8c-1-2.3-2.3-4.1-4.1-5.6c-1.7-1.5-3.8-2.2-6-2.2c-11.5,0.1-17.3,0.1-17.3,0.1
				c0,7.2,0,12.6,0.1,16.2h5.2v8.8h-20.5V519h5.2v-51.5h-5.2v-8.8H283.5z M266.6,493.5l15.7-0.1c4.4,0,7.6-0.9,9.5-2.6
				c2.3-2.1,3.5-5.4,3.5-9.9s-1.2-7.9-3.5-10.1c-2-2-5.2-3-9.5-2.9h-15.7V493.5z"/>
			<path class="st1" d="M338.3,458.7v8.8h-5.2c0,14.7,0,24.9,0.1,30.3c0.1,6.9,1.9,12.2,5.2,15.9c1.6,1.7,3.7,3,6.2,3.9
				c2.6,0.9,5.2,1.3,8,1.4c2.9,0,5.6-0.4,8.1-1.3c2.6-0.9,4.7-2.2,6.2-3.9c3.5-3.7,5.2-9.1,5.2-16v-30.3h-5.2v-8.8h5.2h10.2h5.2v8.8
				h-5.2v31.7c0,9.3-2.9,16.7-8.5,22c-5.3,5.1-12.4,7.6-21.2,7.6c-8.9,0-16-2.5-21.3-7.6c-5.6-5.4-8.3-12.7-8.3-22v-31.7h-5.2v-8.8
				H338.3z M359.9,436.1l-10.7,16.5h-4l4.9-16.5H359.9z"/>
		</g>
	</g>
	<g>
		<g>
			<path class="st0" d="M163.5,356.8c11.1,0,18.9,2.5,23.3,7.6c4.7,5.3,7.1,14.7,7.1,28.1c0,13.3-2.4,22.6-7.1,28
				c-4.5,5.1-12.2,7.6-23.3,7.6c-11,0-18.7-2.5-23.3-7.6c-4.8-5.4-7.2-14.7-7.2-28c0-13.4,2.4-22.7,7.2-28.1
				C144.8,359.3,152.6,356.7,163.5,356.8z M163.5,366.1c-7.9,0-13.3,2.3-16.2,6.9c-2.5,4.1-3.8,10.6-3.9,19.6
				c0,8.9,1.3,15.3,3.9,19.4c1.6,2.3,3.6,4,6.3,5c2.7,1,6,1.5,10,1.5c8,0,13.5-2.2,16.3-6.6c2.5-4,3.8-10.4,3.8-19.4
				c0-9.2-1.3-15.7-3.8-19.7C177,368.4,171.5,366.1,163.5,366.1z"/>
			<path class="st1" d="M203.3,357.9h48.8v9.8v5.2h-8.8v-5.2h-29.9v18.7h32.1v9.8h-32.1v22h5.1v8.8h-5.1h-10.2h-5.2v-8.8h5.2v-51.5
				h-5.2v-8.8H203.3z"/>
			<path class="st1" d="M262.7,357.9h48.8v9.8v5.2h-8.8v-5.2h-29.9v18.7H305v9.8h-32.1v22h5.1v8.8h-5.1h-10.2h-5.2v-8.8h5.2v-51.5
				h-5.2v-8.8H262.7z"/>
			<path class="st1" d="M338.2,357.9v8.8h-5.1v51.5h5.1v8.8h-20.7v-8.8h5.1v-51.5h-5.1v-8.8H338.2z"/>
			<path class="st1" d="M373,357.1c2.5,0,5.1,0.3,8,0.8c4.7,0.8,9.4,2.4,14.1,4.7v11h-8.8v-5.2c-2.4-0.8-4-1.3-4.9-1.5
				c-4.3-0.8-8.1-0.8-11.6,0c-5.6,1.2-9.8,4.2-12.5,8.9c-2.7,4.8-4,10.9-3.9,18.5c0.2,8.2,2.2,14.5,6.2,18.7c1.9,2,4.1,3.4,6.6,4.1
				c2.5,0.7,5.6,1.1,9.1,1.1c5.7,0.1,12.7-0.3,21-1.1v9.4c-10.7,1.2-19,1.6-25.2,1.2c-3.4-0.2-6.5-0.8-9.4-1.7
				c-2.8-1-5.4-2.4-7.9-4.5c-6.8-5.8-10.4-14.8-10.6-26.8c-0.2-9.8,1.5-17.9,5.1-24.2c3.6-6.4,8.9-10.5,15.9-12.3
				C366.9,357.4,369.8,357.1,373,357.1z"/>
			<path class="st1" d="M406.9,357.9h48.9v9.8v5.2H447v-5.2h-29.9v19h32.1v9.8h-32.1v20.8H447V412h8.8v5.2v9.7h-48.9h-5.2v-8.8h5.2
				v-51.5h-5.2v-8.8H406.9z"/>
		</g>
	</g>
	<polyline class="st2" points="404.6,519.4 649,519.4 649,15.8 134.2,15.8 134.2,199.4 11.3,282.9 	"/>
</g>
<g>
</g>
<g>
</g>
<g>
</g>
<g>
</g>
<g>
</g>
<g>
</g>
</svg>
